<svg xmlns="http://www.w3.org/2000/svg" xmlns:xlink="http://www.w3.org/1999/xlink" viewBox="0 0 295.65 183.77"><defs><style>.cls-1{isolation:isolate;}.cls-2{fill:#fff;}.cls-3{fill:#1a1a1c;}.cls-4{fill:url(#linear-gradient);}.cls-5{fill:url(#linear-gradient-2);}.cls-6{fill:#53873d;}.cls-11,.cls-13,.cls-30,.cls-31,.cls-32,.cls-33,.cls-34,.cls-35,.cls-36,.cls-40,.cls-41,.cls-42,.cls-51,.cls-53,.cls-55,.cls-57,.cls-59,.cls-61,.cls-7,.cls-9{opacity:0.5;}.cls-11,.cls-13,.cls-30,.cls-31,.cls-32,.cls-33,.cls-34,.cls-35,.cls-36,.cls-40,.cls-41,.cls-42,.cls-44,.cls-45,.cls-46,.cls-51,.cls-53,.cls-55,.cls-57,.cls-59,.cls-61,.cls-7,.cls-9{mix-blend-mode:multiply;}.cls-7{fill:url(#linear-gradient-3);}.cls-8{fill:url(#linear-gradient-4);}.cls-9{fill:url(#linear-gradient-5);}.cls-10{fill:url(#linear-gradient-6);}.cls-11{fill:url(#linear-gradient-7);}.cls-12{fill:url(#linear-gradient-8);}.cls-13{fill:url(#linear-gradient-9);}.cls-14{fill:#cdcdcf;}.cls-15{fill:#5b432d;}.cls-16{fill:#b38a67;}.cls-17{fill:#2a302f;}.cls-18{fill:#45504f;}.cls-19{fill:#70553d;}.cls-20{fill:#423022;}.cls-21{fill:url(#linear-gradient-10);}.cls-22{fill:#d6d6d6;}.cls-23{fill:#999;}.cls-24{fill:#2e626d;}.cls-25{fill:#efeef1;}.cls-26{fill:#244c51;}.cls-27{fill:#4cafb0;}.cls-28{fill:#a7e2d5;}.cls-29{fill:#878787;}.cls-30{fill:url(#linear-gradient-11);}.cls-31{fill:url(#linear-gradient-12);}.cls-32{fill:url(#linear-gradient-13);}.cls-33{fill:url(#linear-gradient-14);}.cls-34{fill:url(#linear-gradient-15);}.cls-35{fill:url(#linear-gradient-16);}.cls-36{fill:url(#linear-gradient-17);}.cls-37{fill:url(#linear-gradient-18);}.cls-38{fill:url(#linear-gradient-19);}.cls-39{fill:url(#linear-gradient-20);}.cls-40{fill:url(#linear-gradient-21);}.cls-41{fill:url(#linear-gradient-22);}.cls-42{fill:url(#linear-gradient-23);}.cls-43{fill:url(#linear-gradient-24);}.cls-44,.cls-46{opacity:0.65;}.cls-44{fill:url(#linear-gradient-25);}.cls-45{opacity:0.43;fill:url(#linear-gradient-26);}.cls-46{fill:url(#linear-gradient-27);}.cls-47{fill:url(#linear-gradient-28);}.cls-48{fill:url(#linear-gradient-29);}.cls-49{fill:url(#linear-gradient-30);}.cls-50{fill:url(#linear-gradient-31);}.cls-51{fill:url(#linear-gradient-32);}.cls-52{fill:url(#linear-gradient-33);}.cls-53{fill:url(#linear-gradient-34);}.cls-54{fill:url(#linear-gradient-35);}.cls-55{fill:url(#linear-gradient-36);}.cls-56{fill:url(#linear-gradient-37);}.cls-57{fill:url(#linear-gradient-38);}.cls-58{fill:url(#linear-gradient-39);}.cls-59{fill:url(#linear-gradient-40);}.cls-60{fill:url(#linear-gradient-41);}.cls-61{fill:url(#linear-gradient-42);}</style><linearGradient id="linear-gradient" x1="-402.61" y1="99.7" x2="-340.04" y2="99.7" gradientTransform="matrix(-1, 0, 0, 1, -674.7, 0)" gradientUnits="userSpaceOnUse"><stop offset="0" stop-color="#aab134"/><stop offset="1" stop-color="#719a0f"/></linearGradient><linearGradient id="linear-gradient-2" x1="95.03" y1="68.05" x2="120.69" y2="68.05" gradientTransform="translate(-401.37)" xlink:href="#linear-gradient"/><linearGradient id="linear-gradient-3" x1="98.29" y1="68.05" x2="120.69" y2="68.05" gradientTransform="translate(-401.37)" gradientUnits="userSpaceOnUse"><stop offset="0" stop-color="#45504f" stop-opacity="0"/><stop offset="1"/></linearGradient><linearGradient id="linear-gradient-4" x1="42.29" y1="77.93" x2="59.74" y2="77.93" gradientTransform="translate(-357.94)" xlink:href="#linear-gradient"/><linearGradient id="linear-gradient-5" x1="44.5" y1="77.93" x2="59.74" y2="77.93" gradientTransform="translate(-357.94)" xlink:href="#linear-gradient-3"/><linearGradient id="linear-gradient-6" x1="69.73" y1="75.37" x2="89.3" y2="75.37" gradientTransform="translate(-401.37)" xlink:href="#linear-gradient"/><linearGradient id="linear-gradient-7" x1="72.21" y1="75.37" x2="89.3" y2="75.37" xlink:href="#linear-gradient-3"/><linearGradient id="linear-gradient-8" x1="21.98" y1="82.91" x2="35.29" y2="82.91" gradientTransform="translate(-357.94)" xlink:href="#linear-gradient"/><linearGradient id="linear-gradient-9" x1="23.67" y1="82.91" x2="35.29" y2="82.91" gradientTransform="translate(-357.94)" xlink:href="#linear-gradient-3"/><linearGradient id="linear-gradient-10" x1="108.71" y1="165.99" x2="108.71" y2="147.72" gradientUnits="userSpaceOnUse"><stop offset="0" stop-color="#88603b"/><stop offset="1" stop-color="#70553d"/></linearGradient><linearGradient id="linear-gradient-11" x1="122.77" y1="127.64" x2="122.77" y2="108.33" gradientTransform="matrix(1, 0, 0, 1, 0, 0)" xlink:href="#linear-gradient-3"/><linearGradient id="linear-gradient-12" x1="141.23" y1="115.82" x2="141.23" y2="110.02" gradientTransform="matrix(1, 0, 0, 1, 0, 0)" xlink:href="#linear-gradient-3"/><linearGradient id="linear-gradient-13" x1="151.9" y1="119.42" x2="150.57" y2="113.26" gradientTransform="matrix(1, 0, 0, 1, 0, 0)" xlink:href="#linear-gradient-3"/><linearGradient id="linear-gradient-14" x1="164.95" y1="129.93" x2="164.95" y2="114.92" gradientTransform="matrix(1, 0, 0, 1, 0, 0)" xlink:href="#linear-gradient-3"/><linearGradient id="linear-gradient-15" x1="164.06" y1="131.6" x2="164.06" y2="136.9" gradientTransform="matrix(1, 0, 0, 1, 0, 0)" xlink:href="#linear-gradient-3"/><linearGradient id="linear-gradient-16" x1="142.24" y1="132.82" x2="142.24" y2="136.54" gradientTransform="matrix(1, 0, 0, 1, 0, 0)" xlink:href="#linear-gradient-3"/><linearGradient id="linear-gradient-17" x1="136.35" y1="132.93" x2="103" y2="132.93" gradientTransform="matrix(1, 0, 0, 1, 0, 0)" xlink:href="#linear-gradient-3"/><linearGradient id="linear-gradient-18" x1="136.24" y1="108.4" x2="104.86" y2="108.4" gradientTransform="matrix(1, 0, 0, 1, 0, 0)" xlink:href="#linear-gradient-3"/><linearGradient id="linear-gradient-19" x1="152.35" y1="109.39" x2="152.35" y2="105.47" gradientTransform="matrix(1, 0, 0, 1, 0, 0)" xlink:href="#linear-gradient-3"/><linearGradient id="linear-gradient-20" x1="235.64" y1="159.98" x2="159.81" y2="95.24" gradientUnits="userSpaceOnUse"><stop offset="0" stop-color="#45504f" stop-opacity="0"/><stop offset="1" stop-color="#161616"/></linearGradient><linearGradient id="linear-gradient-21" x1="160.49" y1="146.02" x2="139.36" y2="127.78" gradientTransform="matrix(1, 0, 0, 1, 0, 0)" xlink:href="#linear-gradient-3"/><linearGradient id="linear-gradient-22" x1="123.63" y1="152.42" x2="77.61" y2="167.6" gradientTransform="matrix(1, 0, 0, 1, 0, 0)" xlink:href="#linear-gradient-3"/><linearGradient id="linear-gradient-23" x1="92.57" y1="168.05" x2="91.27" y2="153.21" gradientTransform="matrix(1, 0, 0, 1, 0, 0)" xlink:href="#linear-gradient-3"/><linearGradient id="linear-gradient-24" x1="134.87" y1="168.12" x2="133.54" y2="152.99" gradientTransform="matrix(1, 0, 0, 1, 0, 0)" xlink:href="#linear-gradient-3"/><linearGradient id="linear-gradient-25" x1="111.38" y1="160.67" x2="111.38" y2="133.21" gradientTransform="matrix(1, 0, 0, 1, 0, 0)" xlink:href="#linear-gradient-3"/><linearGradient id="linear-gradient-26" x1="144.68" y1="164.45" x2="141.39" y2="140.48" gradientTransform="matrix(1, 0, 0, 1, 0, 0)" xlink:href="#linear-gradient-3"/><linearGradient id="linear-gradient-27" x1="166.46" y1="167.33" x2="149.24" y2="133.51" gradientTransform="matrix(1, 0, 0, 1, 0, 0)" xlink:href="#linear-gradient-3"/><linearGradient id="linear-gradient-28" x1="169.68" y1="147.07" x2="169.68" y2="126.37" gradientTransform="matrix(1, 0, 0, 1, 0, 0)" xlink:href="#linear-gradient-3"/><linearGradient id="linear-gradient-29" x1="-225.97" y1="68.64" x2="-202.38" y2="68.64" gradientTransform="matrix(1, 0, 0, 1, 0, 0)" xlink:href="#linear-gradient"/><linearGradient id="linear-gradient-30" x1="-193.45" y1="99.7" x2="-130.88" y2="99.7" gradientTransform="matrix(1, 0, 0, 1, 0, 0)" xlink:href="#linear-gradient"/><linearGradient id="linear-gradient-31" x1="-223.04" y1="59.33" x2="-215.19" y2="59.33" gradientTransform="matrix(1, 0, 0, 1, 0, 0)" xlink:href="#linear-gradient"/><linearGradient id="linear-gradient-32" x1="-221.09" y1="59.33" x2="-215.19" y2="59.33" gradientTransform="matrix(1, 0, 0, 1, 0, 0)" xlink:href="#linear-gradient-3"/><linearGradient id="linear-gradient-33" x1="-211.44" y1="59.36" x2="-203.58" y2="59.36" gradientTransform="matrix(1, 0, 0, 1, 0, 0)" xlink:href="#linear-gradient"/><linearGradient id="linear-gradient-34" x1="-210.44" y1="59.36" x2="-203.58" y2="59.36" gradientTransform="matrix(1, 0, 0, 1, 0, 0)" xlink:href="#linear-gradient-3"/><linearGradient id="linear-gradient-35" x1="-127.74" y1="75.37" x2="-108.17" y2="75.37" gradientTransform="matrix(-1, 0, 0, 1, -273.33, 0)" xlink:href="#linear-gradient"/><linearGradient id="linear-gradient-36" x1="-125.26" y1="75.37" x2="-108.17" y2="75.37" gradientTransform="matrix(-1, 0, 0, 1, -273.33, 0)" xlink:href="#linear-gradient-3"/><linearGradient id="linear-gradient-37" x1="-158.45" y1="82.91" x2="-145.14" y2="82.91" gradientTransform="matrix(-1, 0, 0, 1, -316.76, 0)" xlink:href="#linear-gradient"/><linearGradient id="linear-gradient-38" x1="-156.76" y1="82.91" x2="-145.14" y2="82.91" gradientTransform="matrix(-1, 0, 0, 1, -316.76, 0)" xlink:href="#linear-gradient-3"/><linearGradient id="linear-gradient-39" x1="-144.98" y1="75.37" x2="-125.41" y2="75.37" gradientTransform="matrix(-1, 0, 0, 1, -273.33, 0)" xlink:href="#linear-gradient"/><linearGradient id="linear-gradient-40" x1="-142.5" y1="75.37" x2="-125.41" y2="75.37" gradientTransform="matrix(-1, 0, 0, 1, -273.33, 0)" xlink:href="#linear-gradient-3"/><linearGradient id="linear-gradient-41" x1="-175.68" y1="82.91" x2="-162.38" y2="82.91" gradientTransform="matrix(-1, 0, 0, 1, -316.76, 0)" xlink:href="#linear-gradient"/><linearGradient id="linear-gradient-42" x1="-174" y1="82.91" x2="-162.38" y2="82.91" gradientTransform="matrix(-1, 0, 0, 1, -316.76, 0)" xlink:href="#linear-gradient-3"/></defs><title>background</title><g class="cls-1"><g id="Solid_Color" data-name="Solid Color"><rect class="cls-2" x="-310.08" y="-108.35" width="154.76" height="295.45" transform="translate(108.75 -126.55) rotate(-89.93)"/><rect class="cls-3" x="0.07" width="295.58" height="167.13"/></g><g id="Background"><path class="cls-2" d="M-112,90.33a14.84,14.84,0,0,0,.88-5c0-8.64-7.4-15.65-16.53-15.65a16.34,16.34,0,0,0-16.14,12.3,6.87,6.87,0,0,0-4.6-1.75,7,7,0,0,0-2.48.45A14.12,14.12,0,0,0-162.34,75a13.93,13.93,0,0,0-12.77,8,11.08,11.08,0,0,0-6.35-2c-.34,0-.67,0-1,0a17.75,17.75,0,0,0-2.67-7.58,5.48,5.48,0,0,0,1.88-4.11,5.81,5.81,0,0,0-6-5.65A6,6,0,0,0-194,66a20.17,20.17,0,0,0-7.72-1.52c-10.06,0-18.33,7.24-19.32,16.52A10.64,10.64,0,0,0-228,84.65a38.12,38.12,0,0,0-5-.09,14.93,14.93,0,0,0,.09-1.65c0-10.16-8.7-18.39-19.42-18.39-9.42,0-17.27,6.36-19,14.79a12.33,12.33,0,0,0-3.57-.53,12.27,12.27,0,0,0-3.61.55c0-.19,0-.39,0-.58,0-12.45-10.65-22.55-23.8-22.55a24.21,24.21,0,0,0-19.31,9.36,9.8,9.8,0,0,0-5.79-1.88,9.25,9.25,0,0,0-9.49,9c0,.15,0,.29,0,.43a14.42,14.42,0,0,0-9.74,13.42,13.54,13.54,0,0,0,.61,4c-15.41,5.74-34.36,10.75-34.36,10.75h284Z" transform="translate(380.52 66.82)"/></g><g id="Building"><path class="cls-4" d="M-334.66,100.81h62.57a2.21,2.21,0,0,0-2.22-2.22h-58.13a2.21,2.21,0,0,0-2.22,2.22Z" transform="translate(380.52 66.82)"/><path class="cls-5" d="M-300.75,89.69s-9.73-4.13-3.52-11.71,3.56-9,3.52-13.8,3-4.42,4-8.52.21-12.53,3.47-9.27,2.42,7.79,4.42,7.06-1.26,11,1.58,13.47,4.95,5.58,4,8.43,4.43,6.09,2,11.67S-300.75,89.69-300.75,89.69Z" transform="translate(380.52 66.82)"/><path class="cls-6" d="M-293.5,98.9a.63.63,0,0,1-.63-.6,77.73,77.73,0,0,1,0-8.69c.17-1.4-3.72-4.55-6.53-6.34a.63.63,0,0,1-.19-.87.63.63,0,0,1,.87-.2c1.24.79,7.43,4.88,7.11,7.56a81.2,81.2,0,0,0,0,8.47.64.64,0,0,1-.6.67Z" transform="translate(380.52 66.82)"/><path class="cls-6" d="M-292.22,87.26a.63.63,0,0,1-.58-.38.64.64,0,0,1,.33-.83c.19-.08,4.63-2.08,5.41-8.76a.63.63,0,0,1,.7-.55.63.63,0,0,1,.56.7c-.88,7.44-6,9.68-6.17,9.77A.56.56,0,0,1-292.22,87.26Z" transform="translate(380.52 66.82)"/><path class="cls-6" d="M-293.5,85.71a.63.63,0,0,1-.19,0,.62.62,0,0,1-.41-.79s1-3.41-1.34-9.37h0s-1.92-2.9,1.42-9.7c2.88-5.85.65-7.38.63-7.39a.66.66,0,0,1-.21-.87.64.64,0,0,1,.86-.22c.13.08,3.3,2-.14,9-3,6.05-1.46,8.53-1.45,8.56,2.59,6.54,1.48,10.18,1.43,10.33A.63.63,0,0,1-293.5,85.71Z" transform="translate(380.52 66.82)"/><path class="cls-7" d="M-303.09,88.3a13.24,13.24,0,0,0,2.34,1.39s17,2.91,19.44-2.67-2.95-8.83-2-11.68-1.15-6-4-8.42.42-14.21-1.58-13.47-1.15-3.79-4.42-7.06c-1.75-1.75-2.35-.13-2.67,2.37,1.82,1.82,4.07,4.63,3.82,7.22-.41,4.28,1.49,8.45-.71,10.4s-3.43,6.54-2.56,9.14,4,11.66,0,10.09-7.58-2.37-6.16.19C-300.34,88.14-298.76,88.86-303.09,88.3Z" transform="translate(380.52 66.82)"/><path class="cls-8" d="M-311.85,92.64s-6.61-2.81-2.39-8,2.42-6.09,2.39-9.38,2.05-3,2.7-5.8.14-8.51,2.36-6.29,1.64,5.29,3,4.79-.86,7.52,1.08,9.16,3.36,3.79,2.72,5.73,3,4.14,1.36,7.93S-311.85,92.64-311.85,92.64Z" transform="translate(380.52 66.82)"/><path class="cls-6" d="M-306.92,98.9a.43.43,0,0,1-.43-.41,53.47,53.47,0,0,1,0-5.91c.11-1-2.53-3.09-4.44-4.31a.42.42,0,0,1-.13-.59.42.42,0,0,1,.59-.13c.85.54,5.05,3.31,4.83,5.14a55.1,55.1,0,0,0,0,5.76.43.43,0,0,1-.41.45Z" transform="translate(380.52 66.82)"/><path class="cls-6" d="M-306,91a.43.43,0,0,1-.39-.26.43.43,0,0,1,.23-.56c.12-.06,3.14-1.42,3.67-6a.44.44,0,0,1,.48-.38.44.44,0,0,1,.38.48c-.6,5.06-4.05,6.58-4.2,6.64A.33.33,0,0,1-306,91Z" transform="translate(380.52 66.82)"/><path class="cls-6" d="M-306.92,89.93a.32.32,0,0,1-.13,0,.43.43,0,0,1-.28-.53s.69-2.32-.9-6.37h0s-1.31-2,1-6.6c2-4,.44-5,.43-5a.44.44,0,0,1-.14-.59.42.42,0,0,1,.58-.15c.09,0,2.25,1.38-.09,6.14-2,4.11-1,5.8-1,5.82,1.76,4.45,1,6.92,1,7A.42.42,0,0,1-306.92,89.93Z" transform="translate(380.52 66.82)"/><path class="cls-9" d="M-313.43,91.69a9,9,0,0,0,1.58,1s11.57,2,13.22-1.82-2-6-1.36-7.93-.79-4.08-2.72-5.73.28-9.66-1.08-9.16-.78-2.58-3-4.79c-1.19-1.19-1.6-.09-1.82,1.61,1.24,1.23,2.77,3.14,2.6,4.9-.28,2.91,1,5.75-.48,7.07A6.92,6.92,0,0,0-308.23,83c.58,1.76,2.71,7.93,0,6.86s-5.16-1.62-4.19.12S-310.49,92.08-313.43,91.69Z" transform="translate(380.52 66.82)"/><path class="cls-10" d="M-327.38,91.88s-7.42-3.16-2.68-8.94,2.71-6.82,2.68-10.52,2.3-3.37,3-6.5.16-9.56,2.65-7.07,1.85,5.94,3.38,5.38-1,8.43,1.2,10.28,3.77,4.26,3.05,6.42,3.38,4.65,1.53,8.91S-327.38,91.88-327.38,91.88Z" transform="translate(380.52 66.82)"/><path class="cls-6" d="M-321.85,98.9a.48.48,0,0,1-.48-.46,61.48,61.48,0,0,1,0-6.63c.12-1.06-2.84-3.47-5-4.83a.49.49,0,0,1-.15-.67.5.5,0,0,1,.67-.15c.94.61,5.66,3.72,5.41,5.77a62.78,62.78,0,0,0,0,6.46.48.48,0,0,1-.46.51Z" transform="translate(380.52 66.82)"/><path class="cls-6" d="M-320.87,90a.48.48,0,0,1-.44-.29.49.49,0,0,1,.25-.63c.14-.06,3.53-1.59,4.13-6.68a.47.47,0,0,1,.53-.42.47.47,0,0,1,.42.53c-.66,5.67-4.54,7.39-4.7,7.46A.63.63,0,0,1-320.87,90Z" transform="translate(380.52 66.82)"/><path class="cls-6" d="M-321.85,88.84l-.14,0a.49.49,0,0,1-.32-.61s.77-2.6-1-7.14h0s-1.46-2.21,1.09-7.4c2.2-4.46.49-5.63.48-5.64a.49.49,0,0,1-.16-.66.48.48,0,0,1,.65-.17c.1.07,2.52,1.56-.1,6.9-2.27,4.61-1.12,6.5-1.11,6.52,2,5,1.13,7.77,1.09,7.89A.47.47,0,0,1-321.85,88.84Z" transform="translate(380.52 66.82)"/><path class="cls-11" d="M-329.16,90.81a10.26,10.26,0,0,0,1.78,1.07s13,2.21,14.83-2-2.25-6.74-1.53-8.91-.88-4.57-3.05-6.42.32-10.84-1.2-10.28-.89-2.89-3.38-5.38c-1.33-1.33-1.79-.1-2,1.81,1.39,1.39,3.11,3.53,2.92,5.5-.31,3.27,1.14,6.45-.54,7.94a7.76,7.76,0,0,0-2,7c.67,2,3.05,8.89,0,7.7s-5.79-1.82-4.71.13C-327.06,90.7-325.86,91.25-329.16,90.81Z" transform="translate(380.52 66.82)"/><path class="cls-12" d="M-333.06,94.12s-5-2.14-1.82-6.07,1.84-4.64,1.82-7.15,1.57-2.29,2.06-4.42.11-6.5,1.8-4.8,1.25,4,2.29,3.65-.65,5.73.82,7,2.56,2.89,2.07,4.37,2.3,3.16,1,6S-333.06,94.12-333.06,94.12Z" transform="translate(380.52 66.82)"/><path class="cls-6" d="M-329.3,98.9a.34.34,0,0,1-.33-.31,43.63,43.63,0,0,1,0-4.51c.09-.72-1.92-2.36-3.38-3.29a.32.32,0,0,1-.1-.45.33.33,0,0,1,.45-.1c.64.41,3.85,2.53,3.68,3.92a43.22,43.22,0,0,0,0,4.39.33.33,0,0,1-.31.35Z" transform="translate(380.52 66.82)"/><path class="cls-6" d="M-328.63,92.87a.33.33,0,0,1-.3-.2.32.32,0,0,1,.17-.43A5.45,5.45,0,0,0-326,87.7a.34.34,0,0,1,.37-.29.31.31,0,0,1,.28.36,6.08,6.08,0,0,1-3.19,5.07Z" transform="translate(380.52 66.82)"/><path class="cls-6" d="M-329.3,92.06h-.1a.33.33,0,0,1-.21-.41s.52-1.77-.69-4.86h0s-1-1.51.74-5c1.49-3,.33-3.83.32-3.83a.34.34,0,0,1-.11-.45.33.33,0,0,1,.45-.12c.07.05,1.71,1.06-.08,4.69-1.54,3.13-.75,4.42-.74,4.43,1.34,3.4.76,5.28.73,5.36A.32.32,0,0,1-329.3,92.06Z" transform="translate(380.52 66.82)"/><path class="cls-13" d="M-334.27,93.4a7.12,7.12,0,0,0,1.21.72s8.83,1.51,10.08-1.38-1.53-4.58-1-6-.6-3.11-2.07-4.37.22-7.37-.82-7-.6-2-2.29-3.65c-.91-.91-1.22-.07-1.39,1.23.94.94,2.11,2.39,2,3.74-.21,2.21.78,4.38-.37,5.39a5.28,5.28,0,0,0-1.32,4.74c.45,1.34,2.07,6,0,5.23s-3.93-1.23-3.2.09S-332,93.7-334.27,93.4Z" transform="translate(380.52 66.82)"/><rect class="cls-14" x="151.75" y="114.59" width="26.39" height="21.09"/><rect class="cls-15" x="132.49" y="109.05" width="19.26" height="25.33"/><rect class="cls-16" x="111.47" y="109.05" width="21.02" height="26.2"/><rect class="cls-17" x="112.72" y="110.11" width="2.61" height="25.57"/><rect class="cls-15" x="116.63" y="110.36" width="0.44" height="18.92"/><rect class="cls-15" x="120.01" y="110.36" width="0.44" height="18.92"/><rect class="cls-15" x="123.38" y="110.36" width="0.44" height="18.92"/><rect class="cls-15" x="126.76" y="110.36" width="0.44" height="18.92"/><rect class="cls-15" x="130.13" y="110.36" width="0.44" height="18.92"/><rect class="cls-18" x="108.89" y="110.11" width="4.16" height="57.52"/><rect class="cls-14" x="150.35" y="136.31" width="31.32" height="31.32"/><rect class="cls-15" x="135.13" y="143.7" width="15.22" height="23.93"/><rect class="cls-14" x="135" y="162.35" width="15.35" height="5.28"/><rect class="cls-16" x="87.8" y="140.71" width="47.33" height="26.92"/><rect class="cls-15" x="108.05" y="137.73" width="0.39" height="29.84"/><rect class="cls-15" x="104.23" y="137.73" width="0.39" height="29.84"/><rect class="cls-15" x="100.41" y="137.73" width="0.39" height="29.84"/><rect class="cls-15" x="96.6" y="137.73" width="0.39" height="29.84"/><rect class="cls-15" x="92.78" y="137.73" width="0.39" height="29.84"/><rect class="cls-15" x="126.81" y="137.73" width="0.39" height="29.84"/><rect class="cls-15" x="130.05" y="137.73" width="0.39" height="29.84"/><rect class="cls-15" x="123.29" y="137.73" width="0.39" height="29.84"/><rect class="cls-15" x="119.47" y="137.73" width="0.39" height="29.84"/><rect class="cls-15" x="115.65" y="137.73" width="0.39" height="29.84"/><rect class="cls-15" x="111.83" y="137.73" width="0.39" height="29.84"/><polygon class="cls-18" points="139 136.31 83.76 136.31 83.76 142.47 83.76 144.23 83.76 167.63 90.27 167.63 90.27 144.23 139 144.23 139 136.31"/><rect class="cls-19" x="131.61" y="144.23" width="3.52" height="23.4"/><rect class="cls-20" x="133.18" y="144.23" width="0.39" height="23.33"/><rect class="cls-17" x="90.27" y="147.75" width="2.11" height="13.61"/><rect class="cls-21" x="92.38" y="147.75" width="32.66" height="19.88"/><rect class="cls-22" x="106.77" y="165.55" width="3.87" height="0.92"/><rect class="cls-17" x="178.15" y="110.36" width="6.86" height="57.27"/><rect class="cls-22" x="82.22" y="161.36" width="8.71" height="6.27"/><rect class="cls-23" x="90.93" y="161.36" width="2.11" height="6.27"/><rect class="cls-22" x="123.59" y="161.36" width="8.91" height="6.27"/><rect class="cls-23" x="132.49" y="161.36" width="3.56" height="6.27"/><rect class="cls-24" x="137.24" y="147.4" width="9.94" height="2.2"/><rect class="cls-24" x="137.24" y="151.58" width="9.94" height="2.2"/><rect class="cls-24" x="137.24" y="155.75" width="9.94" height="2.2"/><rect class="cls-17" x="139" y="136.31" width="21.93" height="7.92"/><rect class="cls-23" x="136.05" y="163.98" width="14.29" height="3.65"/><rect class="cls-23" x="150.35" y="163.98" width="27.8" height="3.65"/><rect class="cls-25" x="151.89" y="147.4" width="9.04" height="20.23"/><rect class="cls-23" x="151.89" y="147.4" width="0.75" height="20.23"/><circle class="cls-14" cx="153.68" cy="158.23" r="0.52"/><rect class="cls-26" x="146.28" y="147.4" width="0.9" height="2.2"/><rect class="cls-26" x="146.28" y="151.58" width="0.9" height="2.2"/><rect class="cls-26" x="146.28" y="155.75" width="0.9" height="2.2"/><rect class="cls-18" x="107.29" y="129.64" width="27.23" height="6.67"/><rect class="cls-17" x="134.52" y="129.64" width="15.45" height="6.67"/><rect class="cls-14" x="82.22" y="135.68" width="56.78" height="1.26"/><rect class="cls-23" x="139" y="135.68" width="22.22" height="1.26"/><rect class="cls-23" x="161.22" y="135.68" width="16.93" height="1.26"/><rect class="cls-14" x="106.77" y="129.28" width="27.74" height="0.9"/><rect class="cls-23" x="134.52" y="129.28" width="15.45" height="0.9"/><rect class="cls-18" x="108.89" y="106.25" width="26.97" height="4.11"/><rect class="cls-17" x="134.52" y="106.25" width="35.67" height="4.11"/><rect class="cls-14" x="106.77" y="105.54" width="27.74" height="0.9"/><rect class="cls-23" x="134.52" y="105.54" width="36.35" height="0.9"/><rect class="cls-25" x="118.73" y="116.83" width="10.36" height="3.96"/><rect class="cls-27" x="119.33" y="117.22" width="9.76" height="3.58"/><polygon class="cls-28" points="127.05 120.79 123.47 117.22 122.36 117.22 125.94 120.79 127.05 120.79"/><polygon class="cls-28" points="124.45 120.79 125.28 120.79 121.71 117.22 120.87 117.22 124.45 120.79"/><rect class="cls-24" x="135.15" y="116.83" width="6.9" height="10.65"/><rect class="cls-26" x="141.27" y="116.83" width="0.77" height="10.65"/><rect class="cls-26" x="138.21" y="116.83" width="0.77" height="10.65"/><rect class="cls-24" x="143.03" y="116.83" width="5.37" height="10.65"/><rect class="cls-26" x="147.8" y="116.83" width="0.6" height="10.65"/><rect class="cls-26" x="145.42" y="116.83" width="0.6" height="10.65"/><rect class="cls-14" x="149.96" y="129.28" width="28.18" height="6.4"/><rect class="cls-23" x="149.96" y="129.28" width="28.18" height="0.9"/><rect class="cls-17" x="149.96" y="110.36" width="28.87" height="4.23"/><rect class="cls-23" x="149.96" y="110.36" width="35.04" height="0.57"/><rect class="cls-18" x="185.01" y="110.93" width="26.39" height="56.7"/><rect class="cls-29" x="185.01" y="110.36" width="26.6" height="0.57"/><rect class="cls-24" x="157.82" y="118.81" width="6.21" height="10.47"/><rect class="cls-26" x="157.82" y="118.81" width="0.68" height="10.47"/><rect class="cls-26" x="157.82" y="123.61" width="6.21" height="0.81"/><rect class="cls-24" x="166.8" y="118.81" width="6.21" height="10.47"/><rect class="cls-26" x="166.8" y="118.81" width="0.68" height="10.47"/><rect class="cls-26" x="166.8" y="123.61" width="6.21" height="0.81"/><polygon class="cls-30" points="132.49 129.64 113.06 110.36 132.49 110.36 132.49 129.64"/><rect class="cls-31" x="132.49" y="110.36" width="17.47" height="6.47"/><polygon class="cls-32" points="149.96 114.59 151.75 120.87 151.75 114.59 149.96 114.59"/><polygon class="cls-33" points="154.01 120.87 162.4 129.26 178.15 129.26 178.15 114.59 151.75 114.59 151.75 120.87 154.01 120.87"/><rect class="cls-34" x="149.96" y="130.9" width="28.18" height="4.79"/><rect class="cls-35" x="134.52" y="132.32" width="15.45" height="3.36"/><polygon class="cls-36" points="107.29 130.19 134.52 135.68 134.52 130.19 107.29 130.19"/><polygon class="cls-37" points="134.52 110.36 108.89 106.44 134.52 106.44 134.52 110.36"/><rect class="cls-38" x="134.52" y="106.44" width="35.67" height="2.61"/><polygon class="cls-39" points="184.97 110.93 184.96 118.06 211.4 167.63 211.4 110.93 184.97 110.93"/><polygon class="cls-40" points="139 136.94 160.93 144.23 160.93 136.94 139 136.94"/><polygon class="cls-41" points="90.27 147.75 110.16 167.63 125.04 167.63 125.04 147.75 90.27 147.75"/><polygon class="cls-42" points="90.93 161.36 93.04 167.63 93.04 161.36 90.93 161.36"/><polygon class="cls-43" points="132.49 161.36 136.05 167.63 136.05 161.36 132.49 161.36"/><polygon class="cls-44" points="83.76 136.94 90.27 161.36 131.61 161.36 131.61 144.23 139 144.23 139 136.94 83.76 136.94"/><rect class="cls-45" x="135.13" y="144.23" width="16.76" height="23.4"/><polygon class="cls-46" points="160.93 136.94 178.15 161.36 178.15 167.63 151.89 167.63 151.89 144.23 160.93 144.23 160.93 136.94"/><polygon class="cls-47" points="161.22 136.94 166.25 139.47 178.15 145.4 178.15 136.94 161.22 136.94"/><path class="cls-6" d="M-219.11,68.77a.2.2,0,0,1-.2-.18,25.29,25.29,0,0,1,0-2.66c.05-.43-1.14-1.39-2-1.94a.19.19,0,0,1-.05-.27.18.18,0,0,1,.26-.06c.38.24,2.27,1.49,2.18,2.31a24,24,0,0,0,0,2.6.19.19,0,0,1-.18.2Z" transform="translate(380.52 66.82)"/><path class="cls-6" d="M-218.72,65.21a.18.18,0,0,1-.18-.12.2.2,0,0,1,.1-.25,3.23,3.23,0,0,0,1.66-2.68.19.19,0,0,1,.21-.17.18.18,0,0,1,.17.21,3.54,3.54,0,0,1-1.89,3Z" transform="translate(380.52 66.82)"/><path class="cls-6" d="M-219.11,64.73h-.06a.21.21,0,0,1-.13-.25,4.67,4.67,0,0,0-.41-2.86h0s-.58-.89.44-3c.88-1.79.2-2.26.19-2.27a.18.18,0,0,1-.06-.26.19.19,0,0,1,.26-.07s1,.63,0,2.77c-.91,1.85-.45,2.61-.45,2.62a5,5,0,0,1,.44,3.16A.19.19,0,0,1-219.11,64.73Z" transform="translate(380.52 66.82)"/><path class="cls-48" d="M-202.38,68.86H-226a.44.44,0,0,1,.44-.43h23.15Z" transform="translate(380.52 66.82)"/><path class="cls-49" d="M-130.88,100.81h-62.57a2.21,2.21,0,0,1,2.22-2.22h58.13a2.21,2.21,0,0,1,2.22,2.22Z" transform="translate(380.52 66.82)"/><path class="cls-50" d="M-221.33,66s-3-1.26-1.08-3.58,1.09-2.74,1.08-4.22.92-1.36,1.21-2.61.06-3.84,1.06-2.84.74,2.39,1.36,2.16-.39,3.38.48,4.12,1.51,1.71,1.22,2.58,1.36,1.87.62,3.57S-221.33,66-221.33,66Z" transform="translate(380.52 66.82)"/><path class="cls-6" d="M-219.11,68.77a.2.2,0,0,1-.2-.18,25.29,25.29,0,0,1,0-2.66c.05-.43-1.14-1.39-2-1.94a.19.19,0,0,1-.05-.27.18.18,0,0,1,.26-.06c.38.24,2.27,1.49,2.18,2.31a24,24,0,0,0,0,2.6.19.19,0,0,1-.18.2Z" transform="translate(380.52 66.82)"/><path class="cls-6" d="M-218.72,65.21a.18.18,0,0,1-.18-.12.2.2,0,0,1,.1-.25,3.23,3.23,0,0,0,1.66-2.68.19.19,0,0,1,.21-.17.18.18,0,0,1,.17.21,3.54,3.54,0,0,1-1.89,3Z" transform="translate(380.52 66.82)"/><path class="cls-6" d="M-219.11,64.73h-.06a.21.21,0,0,1-.13-.25,4.67,4.67,0,0,0-.41-2.86h0s-.58-.89.44-3c.88-1.79.2-2.26.19-2.27a.18.18,0,0,1-.06-.26.19.19,0,0,1,.26-.07s1,.63,0,2.77c-.91,1.85-.45,2.61-.45,2.62a5,5,0,0,1,.44,3.16A.19.19,0,0,1-219.11,64.73Z" transform="translate(380.52 66.82)"/><path class="cls-51" d="M-215.38,65.13c.74-1.7-.91-2.7-.62-3.57s-.35-1.83-1.22-2.58.13-4.35-.48-4.12-.36-1.16-1.36-2.16-.81,1-1,2.29c1.08.47,2.28,1.34,1.51,2.76-1.28,2.35-1.2,4.26-.38,5.4s.25,2.84-.4,2.35-2-.83-1.77,0a1.15,1.15,0,0,0,.53.56C-219,66.23-215.94,66.43-215.38,65.13Z" transform="translate(380.52 66.82)"/><path class="cls-52" d="M-209.73,66s-3-1.26-1.07-3.58,1.08-2.74,1.07-4.22.92-1.36,1.21-2.61.07-3.84,1.07-2.84.74,2.39,1.35,2.16-.39,3.38.48,4.12,1.52,1.71,1.23,2.58,1.35,1.87.61,3.57S-209.73,66-209.73,66Z" transform="translate(380.52 66.82)"/><path class="cls-6" d="M-207.51,68.8a.19.19,0,0,1-.19-.18,22.76,22.76,0,0,1,0-2.66c0-.43-1.14-1.39-2-1.94a.2.2,0,0,1-.06-.27.2.2,0,0,1,.27-.06c.38.24,2.27,1.49,2.17,2.31s0,2.58,0,2.6a.19.19,0,0,1-.18.2Z" transform="translate(380.52 66.82)"/><path class="cls-6" d="M-207.12,65.24a.18.18,0,0,1-.17-.12.18.18,0,0,1,.1-.25,3.25,3.25,0,0,0,1.65-2.68.2.2,0,0,1,.22-.17.2.2,0,0,1,.17.21,3.56,3.56,0,0,1-1.89,3Z" transform="translate(380.52 66.82)"/><path class="cls-6" d="M-207.51,64.76h-.06a.2.2,0,0,1-.12-.25,4.77,4.77,0,0,0-.41-2.86h0s-.59-.89.43-3c.88-1.79.2-2.26.19-2.27a.2.2,0,0,1-.06-.26.2.2,0,0,1,.26-.07s1,.63,0,2.77c-.91,1.85-.45,2.61-.44,2.62a5.14,5.14,0,0,1,.44,3.16A.21.21,0,0,1-207.51,64.76Z" transform="translate(380.52 66.82)"/><path class="cls-53" d="M-210.44,65.56a3.57,3.57,0,0,0,.71.42s5.21.89,5.95-.82-.9-2.7-.61-3.57-.36-1.83-1.23-2.58.13-4.35-.48-4.12-.35-1.16-1.35-2.16c-.54-.53-.72,0-.82.73a3.18,3.18,0,0,1,1.17,2.21c-.13,1.3.46,2.58-.22,3.18a3.11,3.11,0,0,0-.78,2.8c.26.79,1.22,3.57,0,3.08s-2.33-.72-1.89.06S-209.12,65.73-210.44,65.56Z" transform="translate(380.52 66.82)"/><path class="cls-54" d="M-149.84,91.88s7.41-3.16,2.68-8.94-2.71-6.82-2.68-10.52-2.3-3.37-3-6.5-.16-9.56-2.65-7.07-1.84,5.94-3.37,5.38,1,8.43-1.2,10.28-3.78,4.26-3,6.42-3.38,4.65-1.53,8.91S-149.84,91.88-149.84,91.88Z" transform="translate(380.52 66.82)"/><path class="cls-6" d="M-155.38,98.9a.49.49,0,0,0,.49-.46,61.48,61.48,0,0,0,0-6.63c-.13-1.06,2.83-3.47,5-4.83a.5.5,0,0,0,.15-.67.5.5,0,0,0-.67-.15c-.95.61-5.66,3.72-5.42,5.77a57.39,57.39,0,0,1,0,6.46.5.5,0,0,0,.46.51Z" transform="translate(380.52 66.82)"/><path class="cls-6" d="M-156.35,90a.49.49,0,0,0,.44-.29.49.49,0,0,0-.25-.63c-.15-.06-3.53-1.59-4.13-6.68a.48.48,0,0,0-.54-.42.48.48,0,0,0-.42.53c.67,5.67,4.54,7.39,4.71,7.46A.58.58,0,0,0-156.35,90Z" transform="translate(380.52 66.82)"/><path class="cls-6" d="M-155.38,88.84l.15,0a.49.49,0,0,0,.31-.61s-.77-2.6,1-7.14h0s1.47-2.21-1.08-7.4c-2.2-4.46-.49-5.63-.48-5.64a.5.5,0,0,0,.16-.66.49.49,0,0,0-.65-.17c-.11.07-2.53,1.56.1,6.9,2.27,4.61,1.11,6.5,1.1,6.52-2,5-1.12,7.77-1.08,7.89A.47.47,0,0,0-155.38,88.84Z" transform="translate(380.52 66.82)"/><path class="cls-55" d="M-148.07,90.81a10,10,0,0,1-1.77,1.07s-13,2.21-14.83-2,2.25-6.74,1.53-8.91.88-4.57,3-6.42-.32-10.84,1.2-10.28.89-2.89,3.37-5.38c1.34-1.33,1.79-.1,2,1.81-1.38,1.39-3.1,3.53-2.91,5.5.31,3.27-1.14,6.45.54,7.94a7.76,7.76,0,0,1,1.95,7c-.66,2-3,8.89,0,7.7s5.79-1.82,4.7.13C-150.16,90.7-151.36,91.25-148.07,90.81Z" transform="translate(380.52 66.82)"/><path class="cls-56" d="M-161.21,94.12s5-2.14,1.82-6.07-1.84-4.64-1.82-7.15-1.56-2.29-2-4.42-.11-6.5-1.81-4.8-1.25,4-2.29,3.65.66,5.73-.82,7-2.56,2.89-2.07,4.37-2.3,3.16-1,6S-161.21,94.12-161.21,94.12Z" transform="translate(380.52 66.82)"/><path class="cls-6" d="M-165,98.9a.34.34,0,0,0,.33-.31,43.63,43.63,0,0,0,0-4.51c-.09-.72,1.93-2.36,3.38-3.29a.32.32,0,0,0,.1-.45.33.33,0,0,0-.45-.1c-.64.41-3.85,2.53-3.68,3.92a43.22,43.22,0,0,1,0,4.39.33.33,0,0,0,.31.35Z" transform="translate(380.52 66.82)"/><path class="cls-6" d="M-165.64,92.87a.35.35,0,0,0,.31-.2.33.33,0,0,0-.18-.43,5.47,5.47,0,0,1-2.8-4.54.34.34,0,0,0-.37-.29.33.33,0,0,0-.28.36c.45,3.86,3.08,5,3.2,5.07A.27.27,0,0,0-165.64,92.87Z" transform="translate(380.52 66.82)"/><path class="cls-6" d="M-165,92.06h.1a.33.33,0,0,0,.21-.41s-.52-1.77.69-4.86h0s1-1.51-.73-5c-1.5-3-.34-3.83-.33-3.83a.34.34,0,0,0,.11-.45.32.32,0,0,0-.44-.12c-.07.05-1.72,1.06.07,4.69,1.54,3.13.75,4.42.75,4.43-1.35,3.4-.77,5.28-.74,5.36A.32.32,0,0,0-165,92.06Z" transform="translate(380.52 66.82)"/><path class="cls-57" d="M-160,93.4a7.12,7.12,0,0,1-1.21.72s-8.83,1.51-10.08-1.38,1.53-4.58,1-6,.6-3.11,2.07-4.37-.22-7.37.82-7,.6-2,2.29-3.65c.91-.91,1.22-.07,1.39,1.23-.94.94-2.11,2.39-2,3.74.21,2.21-.78,4.38.37,5.39A5.28,5.28,0,0,1-164,86.78c-.45,1.34-2.07,6,0,5.23s3.94-1.23,3.2.09S-162.24,93.7-160,93.4Z" transform="translate(380.52 66.82)"/><path class="cls-58" d="M-132.61,91.88s7.42-3.16,2.68-8.94-2.71-6.82-2.68-10.52-2.3-3.37-3-6.5-.16-9.56-2.65-7.07-1.85,5.94-3.37,5.38,1,8.43-1.21,10.28-3.77,4.26-3,6.42-3.38,4.65-1.53,8.91S-132.61,91.88-132.61,91.88Z" transform="translate(380.52 66.82)"/><path class="cls-6" d="M-138.14,98.9a.48.48,0,0,0,.48-.46,58.92,58.92,0,0,0,0-6.63c-.12-1.06,2.84-3.47,5-4.83a.49.49,0,0,0,.15-.67.48.48,0,0,0-.66-.15c-.95.61-5.67,3.72-5.42,5.77a62.78,62.78,0,0,1,0,6.46.49.49,0,0,0,.46.51Z" transform="translate(380.52 66.82)"/><path class="cls-6" d="M-139.12,90a.48.48,0,0,0,.44-.29.48.48,0,0,0-.25-.63c-.14-.06-3.53-1.59-4.13-6.68a.47.47,0,0,0-.53-.42.48.48,0,0,0-.42.53c.66,5.67,4.54,7.39,4.7,7.46A.63.63,0,0,0-139.12,90Z" transform="translate(380.52 66.82)"/><path class="cls-6" d="M-138.14,88.84l.14,0a.48.48,0,0,0,.32-.61s-.77-2.6,1-7.14h0s1.46-2.21-1.09-7.4c-2.19-4.46-.49-5.63-.47-5.64a.48.48,0,0,0,.15-.66.48.48,0,0,0-.65-.17c-.1.07-2.52,1.56.11,6.9,2.26,4.61,1.11,6.5,1.1,6.52-2,5-1.13,7.77-1.09,7.89A.48.48,0,0,0-138.14,88.84Z" transform="translate(380.52 66.82)"/><path class="cls-59" d="M-130.83,90.81a10.26,10.26,0,0,1-1.78,1.07s-13,2.21-14.83-2,2.25-6.74,1.53-8.91.88-4.57,3-6.42-.32-10.84,1.21-10.28.88-2.89,3.37-5.38c1.33-1.33,1.79-.1,2,1.81-1.39,1.39-3.11,3.53-2.92,5.5.31,3.27-1.14,6.45.55,7.94a7.76,7.76,0,0,1,2,7c-.66,2-3.05,8.89,0,7.7s5.78-1.82,4.7.13C-132.93,90.7-134.13,91.25-130.83,90.81Z" transform="translate(380.52 66.82)"/><path class="cls-60" d="M-144,94.12s5-2.14,1.83-6.07S-144,83.41-144,80.9s-1.56-2.29-2.05-4.42-.11-6.5-1.8-4.8-1.26,4-2.29,3.65.65,5.73-.82,7-2.57,2.89-2.08,4.37-2.29,3.16-1,6S-144,94.12-144,94.12Z" transform="translate(380.52 66.82)"/><path class="cls-6" d="M-147.74,98.9a.33.33,0,0,0,.33-.31,40.91,40.91,0,0,0,0-4.51c-.08-.72,1.93-2.36,3.39-3.29a.32.32,0,0,0,.1-.45.33.33,0,0,0-.45-.1c-.65.41-3.85,2.53-3.69,3.92a41.12,41.12,0,0,1,0,4.39.33.33,0,0,0,.31.35Z" transform="translate(380.52 66.82)"/><path class="cls-6" d="M-148.4,92.87a.33.33,0,0,0,.3-.2.33.33,0,0,0-.17-.43,5.47,5.47,0,0,1-2.81-4.54.33.33,0,0,0-.36-.29.33.33,0,0,0-.29.36,6.1,6.1,0,0,0,3.2,5.07A.31.31,0,0,0-148.4,92.87Z" transform="translate(380.52 66.82)"/><path class="cls-6" d="M-147.74,92.06h.1a.34.34,0,0,0,.22-.41s-.53-1.77.69-4.86h0s1-1.51-.74-5c-1.49-3-.33-3.83-.32-3.83a.33.33,0,0,0,.1-.45.32.32,0,0,0-.44-.12c-.07.05-1.71,1.06.07,4.69,1.54,3.13.76,4.42.75,4.43-1.34,3.4-.76,5.28-.74,5.36A.33.33,0,0,0-147.74,92.06Z" transform="translate(380.52 66.82)"/><path class="cls-61" d="M-142.77,93.4a6.7,6.7,0,0,1-1.21.72s-8.82,1.51-10.08-1.38,1.53-4.58,1-6,.6-3.11,2.08-4.37-.22-7.37.82-7,.6-2,2.29-3.65c.91-.91,1.22-.07,1.38,1.23-.94.94-2.11,2.39-2,3.74.21,2.21-.77,4.38.37,5.39a5.28,5.28,0,0,1,1.33,4.74c-.45,1.34-2.07,6,0,5.23s3.93-1.23,3.19.09S-145,93.7-142.77,93.4Z" transform="translate(380.52 66.82)"/></g></g></svg>